<svg width="30" height="30" viewBox="0 0 30 30" fill="none" xmlns="http://www.w3.org/2000/svg">
<path d="M6.71008 9.23486H23.2247C23.5594 9.23488 23.8903 9.30501 24.1961 9.44073C24.502 9.57646 24.776 9.77477 25.0006 10.0229C25.2251 10.271 25.3951 10.5634 25.4998 10.8813C25.6044 11.1991 25.6412 11.5354 25.6079 11.8683L24.8894 19.0538C24.8303 19.6448 24.5537 20.1928 24.1133 20.5914C23.6729 20.9899 23.1001 21.2106 22.5062 21.2107H11.0693C10.5154 21.2109 9.97849 21.0191 9.55008 20.668C9.12167 20.3169 8.82819 19.8281 8.71962 19.285L6.71008 9.23486Z" stroke="white" stroke-width="2.21092" stroke-linejoin="round"/>
<path d="M6.71011 9.23466L5.74007 5.3509C5.6752 5.09193 5.52565 4.86206 5.31518 4.69781C5.10471 4.53356 4.84539 4.44434 4.57842 4.44434H3.11737" stroke="white" stroke-width="2.21092" stroke-linecap="round" stroke-linejoin="round"/>
<path d="M10.3029 26.0007H12.6973" stroke="white" stroke-width="2.21092" stroke-linecap="round" stroke-linejoin="round"/>
<path d="M19.8835 26.0007H22.2779" stroke="white" stroke-width="2.21092" stroke-linecap="round" stroke-linejoin="round"/>
</svg>
